<svg class="payments_pro" xmlns="http://www.w3.org/2000/svg" viewBox="112 131.1 400 250.9">
    <path fill="#263D7E"
          d="M182.9 175.3h-27.1c-1.9 0-3.4 1.3-3.7 3.2l-11 69.4c-.2 1.4.8 2.6 2.2 2.6h12.9c1.9 0 3.4-1.3 3.7-3.2l3-18.7c.3-1.8 1.9-3.2 3.7-3.2h8.6c17.8 0 28.1-8.6 30.8-25.7 1.2-7.5.1-13.4-3.5-17.5-3.7-4.5-10.5-6.9-19.6-6.9zm3.1 25.4c-1.5 9.7-8.9 9.7-16.1 9.7h-4.1l2.9-18.1c.2-1.1 1.1-1.9 2.2-1.9h1.9c4.9 0 9.5 0 11.9 2.8 1.4 1.6 1.9 4 1.3 7.5zM263.8 200.3h-13c-1.1 0-2.1.8-2.2 1.9l-.6 3.6-.9-1.3c-2.8-4.1-9.1-5.4-15.3-5.4-14.3 0-26.6 10.9-28.9 26.1-1.2 7.6.5 14.9 4.8 19.9 4 4.7 9.6 6.6 16.3 6.6 11.5 0 17.9-7.4 17.9-7.4l-.6 3.6c-.2 1.4.8 2.6 2.2 2.6h11.7c1.9 0 3.4-1.3 3.7-3.2l7-44.4c.4-1.3-.7-2.6-2.1-2.6zm-18 25.3c-1.3 7.4-7.1 12.4-14.6 12.4-3.8 0-6.8-1.2-8.7-3.5s-2.6-5.5-2-9.1c1.2-7.3 7.1-12.5 14.5-12.5 3.7 0 6.7 1.2 8.6 3.5 1.9 2.3 2.7 5.6 2.2 9.2zM332.9 200.3h-13c-1.2 0-2.4.6-3.1 1.7l-18 26.5-7.6-25.4c-.5-1.6-1.9-2.7-3.6-2.7h-12.8c-1.6 0-2.6 1.5-2.1 3l14.4 42.1-13.5 19c-1.1 1.5 0 3.6 1.8 3.6h13c1.2 0 2.4-.6 3.1-1.6l43.3-62.6c1-1.5-.1-3.6-1.9-3.6z"></path>
    <path fill="#179BD7"
          d="M376 175.3h-27.1c-1.8 0-3.4 1.3-3.7 3.2l-11 69.4c-.2 1.4.8 2.6 2.2 2.6h13.9c1.3 0 2.4-.9 2.6-2.2l3.1-19.7c.3-1.8 1.9-3.2 3.7-3.2h8.6c17.8 0 28.1-8.6 30.8-25.7 1.2-7.5 0-13.4-3.5-17.5-3.7-4.5-10.5-6.9-19.6-6.9zm3.2 25.4c-1.5 9.7-8.9 9.7-16.1 9.7H359l2.9-18.1c.2-1.1 1.1-1.9 2.2-1.9h1.9c4.9 0 9.5 0 11.9 2.8 1.4 1.6 1.8 4 1.3 7.5zM457 200.3h-13c-1.1 0-2.1.8-2.2 1.9l-.6 3.6-.9-1.3c-2.8-4.1-9.1-5.4-15.3-5.4-14.3 0-26.6 10.9-28.9 26.1-1.2 7.6.5 14.9 4.8 19.9 4 4.7 9.6 6.6 16.3 6.6 11.5 0 17.9-7.4 17.9-7.4l-.6 3.6c-.2 1.4.8 2.6 2.2 2.6h11.7c1.8 0 3.4-1.3 3.7-3.2l7-44.4c.3-1.3-.8-2.6-2.1-2.6zm-18.1 25.3c-1.2 7.4-7.1 12.4-14.6 12.4-3.8 0-6.8-1.2-8.7-3.5-1.9-2.3-2.6-5.5-2-9.1 1.2-7.3 7.1-12.5 14.5-12.5 3.7 0 6.7 1.2 8.6 3.5 2 2.3 2.8 5.6 2.2 9.2zM472.2 177.2l-11.1 70.7c-.2 1.4.8 2.6 2.2 2.6h11.2c1.9 0 3.4-1.3 3.7-3.2l11-69.4c.2-1.4-.8-2.6-2.2-2.6h-12.5c-1.1 0-2.1.8-2.3 1.9z"></path>
    <path fill="#010202"
          d="M131.7 331.9v-38.3h12.4c4.7 0 7.8.2 9.2.6 2.2.6 4 1.9 5.5 3.7 1.5 1.9 2.2 4.4 2.2 7.4 0 2.4-.4 4.3-1.3 6-.8 1.6-1.9 2.8-3.3 3.8-1.3.9-2.7 1.5-4 1.8-1.9.4-4.5.5-8 .5h-5.1v14.4l-7.6.1zm7.7-31.9v10.9h4.2c3.1 0 5.1-.2 6.1-.6 1-.4 1.9-1 2.5-1.9.6-.8.9-1.9.9-3 0-1.4-.4-2.5-1.3-3.4-.8-.9-1.9-1.5-3.1-1.7-.9-.1-2.8-.3-5.6-.3h-3.7zM172.8 312.5l-6.7-1.2c.7-2.7 2-4.7 3.9-6 1.9-1.3 4.5-1.9 8.2-1.9 3.3 0 5.7.4 7.3 1.2 1.6.7 2.8 1.8 3.4 3 .7 1.2 1 3.4 1 6.5l-.1 8.6c0 2.5.1 4.2.4 5.4s.7 2.4 1.3 3.7h-7.3c-.2-.5-.4-1.2-.7-2.2-.1-.4-.2-.7-.3-.9-1.3 1.2-2.6 2.2-4 2.8-1.4.6-3 .9-4.6.9-2.8 0-5.1-.7-6.8-2.3-1.6-1.6-2.5-3.5-2.5-5.9 0-1.6.4-3 1.1-4.2.7-1.3 1.8-2.2 3.1-2.8 1.3-.7 3.3-1.2 5.9-1.7 3.4-.7 5.8-1.3 7.1-1.8v-.7c0-1.4-.4-2.5-1-3.1-.7-.6-2-.9-3.9-.9-1.3 0-2.3.2-3.1.7-.7.7-1.3 1.6-1.7 2.8zm9.9 6c-1 .3-2.5.7-4.5 1.1s-3.3.9-4 1.3c-1 .7-1.4 1.6-1.4 2.6s.4 1.9 1.1 2.7c.7.7 1.7 1.1 2.9 1.1 1.3 0 2.6-.4 3.8-1.3.9-.7 1.5-1.5 1.8-2.5.2-.6.3-1.8.3-3.6v-1.4zM193.6 304h7.8l6.6 19.7 6.5-19.7h7.6l-9.8 26.7-1.8 4.8c-.7 1.6-1.3 2.8-1.9 3.7-.6.8-1.3 1.6-2 2.1s-1.7 1-2.8 1.3c-1.1.3-2.4.4-3.7.4-1.4 0-2.8-.1-4.2-.4l-.7-5.7c1.1.2 2.2.4 3.1.4 1.7 0 3-.5 3.8-1.5.8-1 1.4-2.3 1.9-3.9L193.6 304zM226.4 304h6.8v3.8c2.5-3 5.3-4.4 8.6-4.4 1.8 0 3.3.4 4.6 1.1 1.3.7 2.4 1.9 3.2 3.3 1.2-1.5 2.5-2.6 3.9-3.3 1.4-.7 2.9-1.1 4.5-1.1 2 0 3.8.4 5.2 1.3 1.4.8 2.5 2 3.2 3.6.5 1.2.7 3.1.7 5.7v17.8h-7.4V316c0-2.8-.2-4.5-.7-5.4-.7-1-1.7-1.6-3.1-1.6-1 0-2 .3-2.9 1-.9.6-1.6 1.6-1.9 2.8-.4 1.2-.6 3.1-.6 5.7v13.3h-7.4v-15.3c0-2.7-.1-4.5-.4-5.2-.2-.7-.7-1.3-1.2-1.8-.5-.4-1.3-.6-2.2-.6-1.1 0-2.2.3-3.1.9-.9.6-1.6 1.5-1.9 2.7-.4 1.2-.6 3.1-.6 5.7v13.5h-7.4l.1-27.7zM290.7 323l7.3 1.3c-1 2.7-2.5 4.8-4.5 6.1-2 1.4-4.5 2.1-7.6 2.1-4.8 0-8.4-1.6-10.7-4.8-1.9-2.5-2.8-5.7-2.8-9.6 0-4.6 1.2-8.2 3.6-10.8 2.5-2.6 5.4-3.9 9.2-3.9 4.2 0 7.4 1.3 9.7 4.1s3.5 6.9 3.4 12.6h-18.5c.1 2.2.7 3.9 1.8 5.1 1.1 1.2 2.5 1.8 4.2 1.8 1.1 0 2.1-.3 2.9-1 1-.8 1.5-1.6 2-3zm.3-7.4c-.1-2.2-.6-3.7-1.6-4.8-1-1.1-2.3-1.6-3.8-1.6-1.6 0-2.9.6-3.9 1.8-1 1.2-1.6 2.8-1.6 4.8l10.9-.2zM329.6 331.9h-7.4v-14.2c0-3-.1-4.9-.4-5.8s-.8-1.6-1.6-2.1c-.7-.5-1.6-.7-2.5-.7-1.3 0-2.4.4-3.4 1-1 .7-1.7 1.6-2.1 2.8-.4 1.1-.6 3.3-.6 6.4v12.6h-7.4V304h6.8v4.1c2.5-3.1 5.5-4.7 9.2-4.7 1.6 0 3.1.3 4.5.9 1.3.6 2.4 1.3 3.1 2.2s1.2 1.9 1.4 3.1c.2 1.1.4 2.8.4 4.9v17.4zM349.8 304v5.9h-5.1v11.2c0 2.2.1 3.6.1 3.9.1.4.3.7.7.9.4.2.7.4 1.3.4.7 0 1.6-.2 3-.7l.6 5.7c-1.7.7-3.6 1.1-5.8 1.1-1.3 0-2.5-.2-3.6-.7s-1.9-1-2.3-1.7c-.4-.7-.8-1.6-1-2.8-.1-.8-.2-2.6-.2-5.2v-12.1h-3.3V304h3.3v-5.5l7.4-4.3v9.8h4.9zM352.3 323.9l7.4-1.1c.3 1.4 1 2.5 1.9 3.3 1 .7 2.3 1.1 4 1.1 1.9 0 3.3-.4 4.3-1 .7-.5 1-1.1 1-1.9 0-.6-.1-1-.5-1.4-.4-.4-1.2-.7-2.5-1-6-1.3-9.7-2.5-11.3-3.6-2.2-1.5-3.3-3.6-3.3-6.3 0-2.4 1-4.5 2.8-6.1 1.9-1.6 4.8-2.5 8.9-2.5 3.8 0 6.6.6 8.5 1.9s3.1 3.1 3.8 5.5l-6.9 1.3c-.3-1.1-.9-1.9-1.7-2.5s-2-.9-3.6-.9c-1.9 0-3.3.3-4.2.8-.6.4-.8.9-.8 1.5 0 .5.2 1 .7 1.3.7.5 3 1.2 6.8 2.1 3.9.9 6.6 2 8.2 3.3 1.6 1.3 2.3 3.1 2.3 5.4 0 2.5-1 4.8-3.2 6.5-2.2 1.8-5.3 2.8-9.4 2.8-3.8 0-6.8-.7-9-2.3-2.2-1.5-3.5-3.5-4.2-6.2zM399.7 331.9v-38.3h12.4c4.7 0 7.8.2 9.2.6 2.2.6 4 1.9 5.5 3.7 1.5 1.9 2.2 4.4 2.2 7.4 0 2.4-.4 4.3-1.3 6-.8 1.6-1.9 2.8-3.3 3.8-1.3 1-2.7 1.5-4 1.8-1.9.4-4.5.5-8 .5h-5.1v14.4l-7.6.1zm7.7-31.9v10.9h4.2c3.1 0 5.1-.2 6.1-.6 1-.4 1.9-1 2.5-1.9.6-.8.9-1.9.9-3 0-1.4-.4-2.5-1.3-3.4s-1.9-1.5-3.1-1.7c-.9-.1-2.8-.3-5.6-.3h-3.7zM442.4 331.9H435v-27.8h6.8v3.9c1.2-1.9 2.2-3.1 3.1-3.7s2-.9 3.2-.9c1.6 0 3.3.4 4.8 1.4l-2.3 6.4c-1.3-.8-2.4-1.2-3.4-1.2s-1.9.3-2.6.8c-.7.5-1.3 1.6-1.7 3.1s-.6 4.6-.6 9.3l.1 8.7zM454.5 317.6c0-2.5.6-4.8 1.8-7.1 1.2-2.2 2.9-4 5.1-5.2 2.2-1.2 4.7-1.8 7.4-1.8 4.2 0 7.7 1.3 10.3 4.1 2.7 2.8 4 6.2 4 10.3 0 4.2-1.3 7.7-4.1 10.4-2.8 2.8-6.1 4.2-10.3 4.2-2.5 0-5-.6-7.3-1.7s-4.1-2.8-5.3-5.1c-1.1-2.2-1.6-4.9-1.6-8.1zm7.5.4c0 2.8.7 4.8 1.9 6.3s2.9 2.2 4.8 2.2 3.5-.7 4.8-2.2c1.3-1.5 1.9-3.6 1.9-6.4 0-2.8-.7-4.8-1.9-6.3s-2.9-2.2-4.8-2.2-3.5.7-4.8 2.2c-1.3 1.5-1.9 3.6-1.9 6.4z"></path>
</svg>