<svg class="stripe" xmlns="http://www.w3.org/2000/svg" viewBox="0 135.8 512 242.2">
    <g fill="#010202">
        <path d="M503.3 264c0-35.2-17-62.9-49.6-62.9-32.7 0-52.5 27.8-52.5 62.7 0 41.4 23.4 62.2 56.9 62.2 16.4 0 28.7-3.7 38.1-8.9v-27.5c-9.3 4.7-20.1 7.6-33.7 7.6-13.3 0-25.1-4.7-26.7-20.9H503c.1-1.8.3-9 .3-12.3zm-67.8-13c0-15.5 9.5-22 18.1-22 8.4 0 17.3 6.5 17.3 22h-35.4zM348.2 201.1c-13.5 0-22.1 6.3-26.9 10.7l-1.8-8.5h-30.2v160.2l34.4-7.3.1-38.9c4.9 3.6 12.2 8.7 24.3 8.7 24.6 0 47-19.8 47-63.3-.2-39.9-22.8-61.6-46.9-61.6zm-8.2 94.7c-8.1 0-12.9-2.9-16.2-6.5l-.1-51c3.6-4 8.5-6.7 16.4-6.7 12.5 0 21.2 14 21.2 32-.2 18.4-8.7 32.2-21.3 32.2zM242 193l34.5-7.4v-27.9L242 165zM242 203.4h34.5v120.2H242zM205 213.6l-2.2-10.2h-29.7v120.2h34.4v-81.5c8.1-10.6 21.8-8.7 26.1-7.1v-31.6c-4.4-1.6-20.5-4.6-28.6 10.2zM136.3 173.6l-33.5 7.2-.2 110c0 20.3 15.3 35.3 35.6 35.3 11.3 0 19.5-2.1 24-4.5v-27.9c-4.4 1.8-26.1 8.1-26.1-12.2v-48.8h26.1v-29.3h-26.1l.2-29.8zM43.4 238.3c0-5.4 4.4-7.4 11.7-7.4 10.4 0 23.6 3.2 34.1 8.8v-32.3c-11.4-4.5-22.7-6.3-34.1-6.3-27.9 0-46.4 14.6-46.4 38.9 0 37.9 52.2 31.9 52.2 48.2 0 6.3-5.5 8.4-13.2 8.4-11.4 0-26-4.7-37.5-11v32.7c12.8 5.5 25.7 7.8 37.5 7.8 28.6 0 48.2-14.2 48.2-38.8-.1-40.8-52.5-33.6-52.5-49z"></path>
    </g>
</svg>